<svg width="27" height="27" viewBox="0 0 27 27" fill="none" xmlns="http://www.w3.org/2000/svg">
<g id="file-text">
<path id="Vector" d="M15.748 2.25195H6.74805C6.15131 2.25195 5.57901 2.48901 5.15706 2.91096C4.7351 3.33292 4.49805 3.90522 4.49805 4.50195V22.502C4.49805 23.0987 4.7351 23.671 5.15706 24.0929C5.57901 24.5149 6.15131 24.752 6.74805 24.752H20.248C20.8448 24.752 21.4171 24.5149 21.839 24.0929C22.261 23.671 22.498 23.0987 22.498 22.502V9.00195L15.748 2.25195Z" stroke="white" stroke-width="2.25" stroke-linecap="round" stroke-linejoin="round"/>
<path id="Vector_2" d="M15.752 2.25195V9.00195H22.502" stroke="white" stroke-width="2.25" stroke-linecap="round" stroke-linejoin="round"/>
<path id="Vector_3" d="M18.002 14.623H9.00195" stroke="white" stroke-width="2.25" stroke-linecap="round" stroke-linejoin="round"/>
<path id="Vector_4" d="M18.002 19.127H9.00195" stroke="white" stroke-width="2.25" stroke-linecap="round" stroke-linejoin="round"/>
<path id="Vector_5" d="M11.252 10.125H10.127H9.00195" stroke="white" stroke-width="2.25" stroke-linecap="round" stroke-linejoin="round"/>
</g>
</svg>
